# xmcd
#
# Track frame offsets:
#	150
#	11325
#	25850
#	45065
#	63772
#	78335
#	94769
#	111111
#
# Disc length: 1697 seconds
#
# Revision: 1
# Processed by: cddbd v1.5.2PL0 Copyright (c) Steve Scherf et al.
# Submitted via: audiograbber 1.83.01
#
DISCID=4a069f08
DTITLE=Various Artist - TelePizza 3
DYEAR=2002
DGENRE=Dance
TTITLE0=Ram Jam - Black Betty
TTITLE1=Santana - Black Magic Woman
TTITLE2=Spin Doctors - Two Princes
TTITLE3=Ini Kamoze - Here Comes The Hotstepper
TTITLE4=The Underdog Project - Tonight
TTITLE5=G-Star Presents Big World - Morning Light (Yeah Yeah)
TTITLE6=Big World Meets Gerald - Love Is Like Music
TTITLE7=Clubbers - Children
EXTD=
EXTT0=
EXTT1=
EXTT2=
EXTT3=
EXTT4=
EXTT5=
EXTT6=
EXTT7=
PLAYORDER=
